<svg
  width="31"
  height="31"
  viewBox="0 0 31 31"
  fill="none"
  xmlns="http://www.w3.org/2000/svg"
>
  <g clip-path="url(#clip0)">
    <path
      d="M8.83899 14.9974H21.5244L21.5956 30.9999L15.2025 24.9602L8.91022 30.9999L8.83899 14.9974Z"
      fill="#EF4836"
    />
    <path
      d="M15.1792 14.9976L15.2001 24.9629L15.203 24.9603L21.5961 31L21.5248 14.9976H15.1792Z"
      fill="#C0392B"
    />
    <path
      d="M8.85645 18.9041L8.85935 19.5537L9.8633 21.3847L11.7304 21.1339L13.5424 22.7238L15.1935 21.8587L15.1923 21.2698L13.8303 21.9832C13.6743 22.0649 13.484 22.0422 13.3516 21.9261L11.769 20.5374L10.1801 20.7507C10.0055 20.7742 9.83443 20.6878 9.7497 20.5334L8.85645 18.9041Z"
      fill="#CB4637"
    />
    <path
      d="M13.6204 0.000184159C13.5049 0.00360707 13.3957 0.0537907 13.3179 0.13917L12.2377 1.32388L10.1328 1.27745C9.95665 1.27357 9.79629 1.37852 9.72932 1.54147L9.11959 3.0241L7.12571 3.70048C6.9589 3.75706 6.84413 3.91044 6.83683 4.08649L6.77096 5.68835L5.12861 7.00585C4.99124 7.11609 4.93583 7.29951 4.98924 7.46736L5.47523 8.99501L4.38261 10.7948C4.29116 10.9454 4.30175 11.1367 4.40935 11.2762L5.38856 12.5455L4.97735 14.6105C4.94293 14.7832 5.01836 14.9594 5.16716 15.0537L6.52154 15.9115L6.84142 17.9926C6.86816 18.1667 6.99932 18.3064 7.17137 18.3441L8.73739 18.6871L9.74966 20.5333C9.8344 20.6877 10.0055 20.7741 10.18 20.7506L11.7689 20.5373L13.3516 21.926C13.484 22.0421 13.6743 22.0648 13.8303 21.9831L15.2505 21.2391L17.2126 22.0026C17.3767 22.0666 17.5633 22.0229 17.6821 21.8927L18.7621 20.708L20.8671 20.7544C21.0433 20.7582 21.2036 20.6533 21.2705 20.4904L21.8803 19.0077L23.8741 18.3314C24.041 18.2748 24.1557 18.1214 24.163 17.9453L24.2289 16.3435L25.8712 15.026C26.0086 14.9157 26.064 14.7323 26.0106 14.5645L25.5246 13.0368L26.6174 11.237C26.7088 11.0863 26.6981 10.895 26.5905 10.7556L25.6113 9.4863L26.0225 7.42138C26.0569 7.24862 25.9815 7.07243 25.8327 6.97814L24.4783 6.12028L24.1586 4.03922C24.1318 3.8651 24.0007 3.72541 23.8286 3.68769L22.2625 3.34469L21.2502 1.49852C21.1655 1.3441 20.9945 1.25762 20.8199 1.28106L19.2309 1.49451L17.6483 0.105845C17.5728 0.039583 17.4762 0.00218775 17.3758 0.00012109C17.304 -0.00129974 17.2331 0.0153636 17.1696 0.0486886L15.7495 0.792684L13.7873 0.0290542C13.7341 0.00832303 13.6774 -0.001495 13.6204 0.000184159Z"
      fill="#FFB61C"
    />
    <path
      d="M15.5 2.84909C10.9963 2.84909 7.33325 6.51218 7.33325 11.0158C7.33325 15.5195 10.9963 19.1826 15.5 19.1826C20.0036 19.1826 23.6667 15.5195 23.6667 11.0158C23.6667 6.51218 20.0036 2.84909 15.5 2.84909Z"
      fill="#F39C12"
    />
    <path
      d="M15.4999 3.98535C19.3895 3.98535 22.5304 7.12629 22.5304 11.0158C22.5304 14.9053 19.3895 18.0463 15.4999 18.0463C11.6104 18.0463 8.46948 14.9054 8.46948 11.0159C8.46948 7.12636 11.6104 3.98535 15.4999 3.98535Z"
      fill="#FCD116"
    />
    <path
      d="M15.5 3.9762C11.6122 3.97626 8.46045 7.12792 8.46045 11.0158C8.46051 14.9035 11.6122 18.0553 15.5 18.0553C19.3878 18.0553 22.5395 14.9036 22.5395 11.0158C22.5395 7.12792 19.3877 3.97626 15.5 3.9762ZM15.5 4.37409C19.1681 4.37396 22.1419 7.34757 22.1421 11.0158C22.1423 14.684 19.1686 17.6578 15.5003 17.658C15.5002 17.658 15.5001 17.658 15.5 17.658C11.8318 17.6578 8.85815 14.684 8.85828 11.0158C8.85841 7.3477 11.8319 4.37422 15.5 4.37409Z"
      fill="#E9C31A"
    />
    <path
      d="M21.5462 19.8201L21.2706 20.4904C21.2036 20.6534 21.0433 20.7583 20.8672 20.7545L18.7622 20.708L17.6821 21.8927C17.5634 22.0229 17.3769 22.0667 17.2126 22.0027L15.2505 21.2392L15.1923 21.2698L15.1936 21.8587L15.2111 21.8495L17.4576 22.7237L18.7266 21.3315L21.1366 21.3846L21.5486 20.3827L21.5462 19.8201Z"
      fill="#A63A2E"
    />
  </g>
  <defs>
    <clipPath id="clip0">
      <rect width="31" height="31" fill="white" />
    </clipPath>
  </defs>
</svg>
