<svg
  width="24"
  height="24"
  viewBox="0 0 24 24"
  fill="none"
  xmlns="http://www.w3.org/2000/svg"
>
  <rect
    x="4.5"
    y="4.5"
    width="15"
    height="15"
    rx="3.5"
    fill="white"
    stroke="#CBD5E0"
  />
  <path
    d="M9.69471 11.2807C9.50611 11.0986 9.25351 10.9978 8.99131 11C8.72911 11.0023 8.4783 11.1075 8.29289 11.2929C8.10749 11.4783 8.00232 11.7291 8.00004 11.9913C7.99776 12.2535 8.09855 12.5061 8.28071 12.6947L10.2807 14.6947C10.4682 14.8822 10.7225 14.9875 10.9877 14.9875C11.2529 14.9875 11.5072 14.8822 11.6947 14.6947L15.6947 10.6947C15.8769 10.5061 15.9777 10.2535 15.9754 9.99131C15.9731 9.72911 15.8679 9.4783 15.6825 9.29289C15.4971 9.10749 15.2463 9.00232 14.9841 9.00004C14.7219 8.99776 14.4693 9.09855 14.2807 9.28071L12.2807 11.2807C11.5666 11.9948 10.4088 11.9948 9.69471 11.2807Z"
    fill="white"
  />
</svg>
