<svg width="427" height="74" viewBox="0 0 427 74" fill="none" xmlns="http://www.w3.org/2000/svg">
<path d="M82.7101 73.612C80.5887 73.5062 77.0145 73.3498 74.7674 73.2646C66.7673 72.9613 61.821 72.7404 61.1519 72.6566C60.7785 72.6098 59.2988 72.5128 57.8638 72.4411C56.4288 72.3694 54.8986 72.2557 54.4634 72.1885C54.0282 72.1213 53.0086 72.0312 52.1976 71.9884C49.5226 71.847 47.0646 71.5746 45.1178 71.2035C44.3632 71.0597 43.6439 70.9856 43.5195 71.0387C43.395 71.0919 43.3627 71.0575 43.4476 70.9624C43.5522 70.8453 42.7968 70.7679 41.1096 70.7229C39.7387 70.6863 38.4658 70.6105 38.2809 70.5546C38.0961 70.4987 37.8871 70.1911 37.8166 69.8711C37.6707 69.2094 37.4319 69.1075 35.2632 68.7821C34.4549 68.6609 33.1854 68.4051 32.442 68.2139C31.6986 68.0226 30.8219 67.8233 30.4938 67.7708C29.5569 67.6211 29.5735 67.2535 30.5487 66.5543C31.5742 65.8191 32.3827 65.5129 34.0282 65.2366C35.0951 65.0575 36.555 64.3149 36.5679 63.9447C36.5722 63.8204 35.5944 63.5788 34.2018 63.3601C33.8289 63.3015 32.6061 63.195 31.4845 63.1235C30.3629 63.0519 28.8714 62.873 28.17 62.7258C27.3904 62.5623 25.823 62.4384 24.1378 62.4069C21.145 62.3511 19.8653 62.0914 19.6764 61.5016C19.6124 61.3019 19.0538 60.9857 18.2563 60.6979C17.5332 60.437 16.9963 60.1623 17.0631 60.0875C17.1298 60.0127 17.0502 59.983 16.8861 60.0216C16.1492 60.1946 15.0519 59.813 14.6634 59.2486C14.2399 58.6334 14.4394 58.0662 15.0749 58.078C15.2579 58.0814 15.4104 58.0281 15.4137 57.9595C15.4172 57.891 16.1097 57.8261 16.9529 57.8155C17.796 57.8049 18.5225 57.7248 18.5672 57.6376C18.6119 57.5504 18.8383 57.4826 19.0704 57.4869C19.3024 57.4913 19.5581 57.4212 19.6385 57.3311C19.7189 57.2411 19.8868 57.1694 20.0118 57.1717C20.1367 57.1739 20.1869 57.2342 20.1233 57.3054C20.0597 57.3767 20.3072 57.4376 20.6733 57.4408C21.0665 57.4444 21.3421 57.3575 21.3466 57.2287C21.3509 57.1088 21.4548 57.0589 21.5778 57.1177C21.7007 57.1766 21.8038 57.1535 21.8068 57.0664C21.8157 56.8099 21.2245 56.7052 20.1789 56.7781C19.641 56.8156 18.7438 56.7526 18.1853 56.638C17.6267 56.5235 17.0172 56.4051 16.8307 56.375C16.6443 56.3449 16.3133 56.2607 16.0952 56.1878C15.8771 56.115 15.4945 56.0904 15.245 56.1333C14.6648 56.2329 14.4747 56.0029 14.9233 55.7441C15.1133 55.6346 15.268 55.6103 15.2671 55.6901C15.2662 55.7699 15.3432 55.7618 15.4382 55.672C15.7303 55.396 16.648 55.0948 16.6417 55.2771C16.6383 55.3693 16.7441 55.4468 16.8764 55.4493C17.0087 55.4518 17.069 55.3937 17.0105 55.3203C16.8596 55.1309 18.6833 55.135 19.1401 55.3251C19.3841 55.4266 19.6141 55.4172 19.7845 55.2986C20.0904 55.0858 21.0059 55.0152 20.8244 55.2185C20.6129 55.4554 21.3434 55.3767 21.6367 55.1311C21.8455 54.9561 22.0612 54.9388 22.4771 55.0635C23.196 55.2792 23.4403 55.2788 23.0129 55.0629C22.7619 54.936 22.877 54.9006 23.4724 54.9217C23.9094 54.9372 25.0364 54.8794 25.9769 54.7934C26.9175 54.7073 27.9607 54.632 28.2951 54.6259C29.2897 54.6079 29.0231 54.0473 27.696 53.366C26.9378 52.9767 26.5792 52.6869 26.6658 52.5335C26.7504 52.3836 26.8903 52.3543 27.0509 52.4529C27.1896 52.538 27.5095 52.5512 27.762 52.4821C28.0144 52.413 28.602 52.3584 29.0678 52.3606C29.7233 52.3638 30.0073 52.2668 30.3244 51.9314C30.8396 51.3865 30.9139 51.0779 30.6295 50.6638C30.506 50.484 30.4973 50.3812 30.6102 50.4352C30.7231 50.4892 30.9603 50.2593 31.1372 49.9243C31.3142 49.5893 31.5743 49.2623 31.7152 49.1977C31.8561 49.1331 31.5626 49.0703 31.063 49.0582C30.3921 49.042 30.2452 48.9957 30.501 48.8813C30.7636 48.7639 30.6682 48.7225 30.1061 48.7101C29.6984 48.7012 29.1898 48.6227 28.9758 48.5359C28.7617 48.4491 27.6477 48.0838 26.5001 47.7242C24.1986 47.003 22.86 46.8234 17.9671 46.5796C14.2174 46.3927 13.7961 46.3509 13.2085 46.1073C12.6103 45.8593 9.51811 45.4581 7.55418 45.3737C6.52476 45.3294 5.60959 45.1776 4.95414 44.9423C4.39784 44.7427 3.43399 44.5194 2.81226 44.4461C1.57584 44.3005 -0.0068948 43.857 2.25959e-05 43.6581C0.0025846 43.5891 0.597007 43.4024 1.32131 43.2433C2.43435 42.9987 3.37675 42.9657 7.40842 43.0308C10.6289 43.0827 12.4621 43.044 13.0512 42.9118C13.902 42.7209 14.7169 42.765 16.794 43.1143C17.3294 43.2044 18.8521 43.3119 20.1779 43.3533C21.5036 43.3947 22.7829 43.5096 23.0207 43.6086C23.275 43.7144 23.7959 43.7428 24.2853 43.6776C24.743 43.6166 25.2073 43.5843 25.3169 43.6058C25.7221 43.6853 32.6381 43.7623 33.4087 43.6959C34.7151 43.5834 36.3545 43.5145 38.6136 43.4774C39.7852 43.4582 40.8573 43.3635 40.996 43.267C41.2425 43.0955 40.8264 43.0003 40.0788 43.0573C39.9222 43.0692 39.797 42.9929 39.8007 42.8876C39.8045 42.7824 39.66 42.7345 39.4801 42.7813C39.3001 42.828 39.0305 42.7526 38.8809 42.6136C38.6626 42.4107 38.5708 42.4028 38.4146 42.5732C38.2562 42.7462 38.221 42.7449 38.2244 42.5663C38.2269 42.4278 38.07 42.3808 37.7977 42.4385C37.5108 42.4993 37.319 42.4311 37.2236 42.2342C37.1448 42.0716 37.1911 41.9138 37.3266 41.8835C37.6768 41.8053 38.2623 41.3765 38.2686 41.1937C38.2775 40.9387 37.3893 40.3376 37.1528 40.4386C37.032 40.4902 36.995 40.4228 37.0706 40.2889C37.1751 40.1037 37.0849 40.0665 36.6942 40.1335C36.2861 40.2036 36.2114 40.1666 36.3317 39.9536C36.5556 39.5568 36.0786 39.4191 35.6889 39.7681C35.4752 39.9593 35.397 39.9792 35.4749 39.8223C35.6122 39.546 34.5655 39.0808 34.1783 39.2461C34.045 39.3031 34.0169 39.2648 34.1131 39.1571C34.2059 39.0531 34.1736 38.9661 34.0414 38.9636C33.9091 38.9611 33.7969 39.0714 33.7921 39.2086C33.7799 39.5606 33.3304 39.5124 33.3233 39.1582C33.3184 38.9109 33.2882 38.9166 33.1232 39.1961C33.0163 39.3771 32.9587 39.5664 32.9951 39.6167C33.0316 39.6671 32.8637 39.7154 32.622 39.7243C32.0907 39.7436 32.0642 39.6116 32.55 39.3652C32.8323 39.222 32.6321 39.1883 31.6286 39.21C30.8712 39.2263 30.4026 39.1749 30.4835 39.0843C30.5596 38.9991 30.4169 38.9658 30.1629 39.0094C29.8968 39.0551 29.7082 39.0061 29.7121 38.8925C29.716 38.7849 29.5974 38.7489 29.449 38.8123C29.2594 38.8932 29.2342 38.8338 29.3643 38.6125C29.4661 38.4392 29.5764 38.1959 29.6092 38.0719C29.7115 37.6859 30.2937 37.5835 30.9992 37.8275C31.3697 37.9556 31.545 38.0641 31.3885 38.0687C30.8304 38.0848 31.1039 38.4096 31.6847 38.4205C32.112 38.4285 32.2436 38.3629 32.1574 38.185C32.0917 38.0495 32.1423 37.894 32.2698 37.8395C32.4179 37.7763 32.3984 37.6426 32.2159 37.4692C31.9744 37.2399 31.9856 37.2143 32.2881 37.3036C32.4849 37.3617 32.7926 37.337 32.9718 37.2486C33.2292 37.1218 33.2129 37.1063 32.8941 37.1749C32.5539 37.2482 32.5168 37.1912 32.6577 36.8118C32.7496 36.5643 32.9088 36.3232 33.0115 36.2761C33.3457 36.1228 32.995 35.4654 32.6296 35.5603C32.3926 35.6218 32.3164 35.5545 32.3757 35.336C32.4377 35.1077 32.3381 35.0314 32.0049 35.0521C31.7543 35.0676 31.6792 35.0411 31.8379 34.9932C31.9966 34.9452 32.0752 34.8417 32.0125 34.7631C31.9499 34.6845 32.1078 34.5186 32.3634 34.3945C32.619 34.2704 32.7624 34.1182 32.682 34.0563C32.6017 33.9943 32.7318 33.9462 32.9713 33.9492C33.3287 33.9538 33.3478 33.9259 33.0774 33.7936C32.8613 33.6878 32.6894 33.6981 32.5774 33.8236C32.4834 33.9288 32.3433 33.9661 32.266 33.9065C32.1241 33.7972 32.5701 33.1002 32.8768 32.9517C33.1276 32.8302 33.441 32.0732 33.1975 32.1773C33.0824 32.2264 32.8738 32.1245 32.7339 31.9509C32.5076 31.6699 32.5475 31.6398 33.0957 31.6772C33.484 31.7037 33.6935 31.642 33.6622 31.5103C33.635 31.3954 33.689 31.3117 33.7824 31.3243C34.249 31.3872 34.5221 31.2939 34.5299 31.0689C34.5347 30.9317 34.6468 30.8215 34.7791 30.824C34.9114 30.8265 34.9643 30.7589 34.8966 30.674C34.8289 30.589 34.9032 30.484 35.0617 30.4406C35.2356 30.393 35.1925 30.3536 34.953 30.3412C34.7346 30.3299 34.5579 30.2632 34.5604 30.193C34.5629 30.1229 34.2071 30.0711 33.7699 30.078C33.3328 30.0848 33.0341 30.0244 33.1062 29.9437C33.1783 29.8629 33.0208 29.7928 32.7562 29.7879C32.4916 29.7829 32.3409 29.7053 32.4213 29.6152C32.5017 29.5252 32.4483 29.4493 32.3026 29.4466C32.1504 29.4438 32.1027 29.3268 32.1904 29.1714C32.3179 28.9454 32.2851 28.9345 31.9897 29.1048C31.7 29.2719 31.6381 29.2636 31.6452 29.0582C31.65 28.9204 31.8597 28.7724 32.1112 28.7293C32.3865 28.682 32.5734 28.5109 32.5807 28.2995C32.591 28.0036 32.4939 27.9616 31.965 28.0333C31.4497 28.1032 31.4081 28.0871 31.7332 27.9438C32.1013 27.7815 32.0959 27.7394 31.6561 27.3495C31.3958 27.1187 31.0308 26.927 30.8452 26.9235C30.1617 26.9107 30.7791 26.7471 31.6982 26.6975C32.2516 26.6675 32.5897 26.7099 32.5101 26.7991C32.435 26.8832 32.4757 26.9539 32.6007 26.9562C32.7256 26.9584 32.8821 26.8996 32.9486 26.8252C33.015 26.7509 33.406 26.7103 33.8174 26.735C34.2288 26.7598 34.6865 26.7142 34.8344 26.6338C34.9997 26.544 35.1579 26.556 35.2449 26.6651C35.3407 26.7854 35.525 26.7917 35.8156 26.6847C36.0516 26.5978 36.4822 26.5375 36.7724 26.5506C37.5786 26.5872 40.368 26.4571 40.5631 26.3738C40.7151 26.3089 43.2024 26.1238 43.9637 26.1207C44.3624 26.1192 44.3462 25.337 43.9427 25.1062C43.7591 25.0011 43.5934 24.7073 43.5745 24.4532C43.5531 24.1662 43.4333 24.0189 43.2581 24.0644C43.0931 24.1073 43.0284 24.0452 43.1021 23.9147C43.1843 23.769 42.9929 23.6493 42.5501 23.5694C41.8053 23.435 41.285 23.0622 41.5024 22.8188C41.5807 22.731 41.4417 22.6974 41.1838 22.7417C40.8578 22.7977 40.729 22.7385 40.736 22.5359C40.7415 22.3795 40.5429 22.2085 40.2947 22.156C39.7908 22.0495 39.7165 21.8447 40.1194 21.6727C40.2864 21.6014 40.3214 21.6309 40.2133 21.7519C40.1185 21.8581 40.1256 21.9358 40.2291 21.9246C40.7157 21.8721 40.9828 21.977 40.9744 22.2176C40.9625 22.5604 41.5124 22.4375 41.6223 22.0729C41.6687 21.9188 41.6218 21.8019 41.5177 21.8132C40.8886 21.8815 40.5363 21.745 40.547 21.4371C40.5535 21.2488 40.6595 21.1429 40.7825 21.2018C40.9054 21.2606 41.0114 21.1547 41.0179 20.9664C41.0245 20.7781 41.1722 20.6267 41.3463 20.6299C41.5203 20.6331 41.7276 20.5208 41.8069 20.3802C41.8862 20.2397 41.8564 20.1652 41.7405 20.2147C41.6247 20.2641 41.4891 20.2093 41.4391 20.0929C41.3891 19.9764 41.3705 20.0126 41.3978 20.1733C41.4251 20.3339 41.3547 20.4636 41.2415 20.4615C41.1283 20.4594 41.0387 20.3686 41.0425 20.2596C41.0464 20.1507 40.8998 20.2036 40.7169 20.3773C40.4728 20.6091 40.4529 20.7258 40.6419 20.8163C40.7898 20.8871 40.6995 20.9248 40.4301 20.9049C40.0133 20.8741 39.7346 20.4334 40.1366 20.4409C40.2251 20.4425 40.3666 20.2206 40.4511 19.9476C40.5731 19.5534 40.7227 19.4535 41.1782 19.462C41.4937 19.4679 41.7543 19.3978 41.7575 19.3064C41.7605 19.2149 41.9677 19.1439 42.2176 19.1486C42.6987 19.1576 42.8199 19.4021 42.4265 19.5701C42.0065 19.7495 42.3935 19.9446 43.1075 19.9135C44.0371 19.873 44.2649 19.6903 43.4311 19.6538C42.7817 19.6254 42.78 19.6229 43.3411 19.5171L43.9131 19.4094L43.4091 19.1963C42.8285 18.9509 42.7518 18.6594 43.2704 18.669C43.4652 18.6726 43.5588 18.7493 43.4784 18.8393C43.398 18.9293 43.4404 19.005 43.5727 19.0075C43.705 19.01 43.8185 18.8623 43.8249 18.6794C43.8319 18.4779 43.9878 18.3496 44.2205 18.354C44.5547 18.3602 44.5484 18.3292 44.172 18.1158C43.8265 17.9199 43.715 17.9133 43.6183 18.0827C43.5448 18.2116 43.3318 18.2481 43.0759 18.1757C42.6798 18.0637 42.6782 18.04 43.049 17.782C43.266 17.631 43.5895 17.5102 43.768 17.5135C44.0612 17.519 44.1994 17.3196 44.1382 16.9796C44.1257 16.9108 44.275 16.8574 44.4697 16.861C44.6645 16.8647 44.7674 16.7969 44.6985 16.7104C44.5354 16.5057 44.9733 16.3199 45.2766 16.4651C45.4368 16.5418 45.4243 16.65 45.2369 16.807C45.0398 16.9721 45.0344 17.038 45.2177 17.0414C45.484 17.0464 45.5632 16.8464 45.5046 16.3166C45.4588 15.9025 45.8952 15.7285 46.9384 15.7448C47.4401 15.7527 47.7695 15.6825 47.7398 15.5739C47.7076 15.4561 48.1811 15.3964 49.0524 15.4083C49.8021 15.4185 50.546 15.3558 50.7056 15.2689C50.8652 15.182 51.2917 15.16 51.6534 15.2201C52.1216 15.2977 52.3993 15.249 52.6172 15.0508C52.7856 14.8976 52.8304 14.8272 52.7169 14.8942C52.6035 14.9612 52.2331 14.6923 51.8939 14.2965C51.5547 13.9007 51.2744 13.6446 51.271 13.7273C51.2676 13.8101 51.0651 13.7385 50.821 13.5684C50.5769 13.3982 50.3832 13.177 50.3905 13.077C50.3977 12.9769 50.5033 13.0279 50.6251 13.1903C50.7469 13.3527 51.0152 13.4888 51.2213 13.4926C51.4984 13.4978 51.5314 13.4497 51.3479 13.3083C51.2113 13.2031 51.1607 13.0087 51.2354 12.8763C51.3465 12.6794 51.4049 12.6766 51.5556 12.8609C51.6913 13.0268 51.742 12.9985 51.7478 12.7537C51.7576 12.3377 51.2416 11.7926 50.9888 11.9517C50.8851 12.017 50.8781 11.977 50.9733 11.8629C51.0684 11.7488 51.2399 11.7003 51.3544 11.7551C51.4689 11.8099 51.5651 11.7798 51.5683 11.6884C51.5713 11.5969 51.4779 11.476 51.3603 11.4198C51.073 11.2823 51.3581 10.8011 51.8812 10.54C52.1143 10.4237 52.2421 10.2496 52.1652 10.1531C52.0742 10.0389 52.2123 10.0229 52.5608 10.1074C52.9981 10.2133 53.0455 10.1961 52.8198 10.0135C52.484 9.74192 52.4738 9.2391 52.8026 9.16562C53.0284 9.11516 53.0903 8.8287 53.0199 8.1599C53.0015 7.98597 52.7981 7.86354 52.516 7.85676C52.2441 7.85019 52.1484 7.79536 52.2909 7.72776C52.6487 7.55802 52.8799 7.06019 52.6517 6.95095C52.5447 6.8997 52.4079 6.95089 52.3479 7.06475C52.2879 7.1786 52.1806 7.23106 52.1095 7.18132C52.0384 7.13159 52.0744 6.98548 52.1895 6.85664C52.3659 6.65904 52.4702 6.67228 52.856 6.94128C53.3026 7.25271 53.314 7.25277 53.3423 6.94378C53.3583 6.76841 53.4191 6.72095 53.4786 6.83733C53.5376 6.95283 53.6905 7.04927 53.8184 7.05166C53.9463 7.05416 53.9964 6.94356 53.9298 6.80614C53.8632 6.66872 53.8813 6.56884 53.97 6.58418C54.0588 6.59953 54.424 6.53001 54.7818 6.42973C55.1395 6.32945 55.5244 6.29152 55.637 6.34543C55.7497 6.39936 55.8447 6.35981 55.8483 6.25755C55.8517 6.15529 55.9484 6.11646 56.0629 6.17125C56.1773 6.22603 56.3336 6.20069 56.4102 6.11493C56.4868 6.02917 56.7263 5.96294 56.9424 5.96774C57.5697 5.98168 57.9607 5.89733 59.0079 5.52223C59.5487 5.32853 60.1328 5.17268 60.3059 5.17591C60.479 5.17913 60.6654 5.09142 60.7199 4.98098C60.8261 4.76624 62.9481 4.70096 62.9407 4.91266C62.9386 4.98013 63.2195 4.98332 63.5655 4.91972C64.2473 4.79443 65.6913 4.84737 66.7364 5.03597C67.2786 5.13382 67.4456 5.08502 67.7029 4.75363C67.874 4.53328 67.9558 4.28 67.8847 4.19078C67.7014 3.96074 66.1688 3.77508 63.6655 3.67966C62.4795 3.63446 61.2865 3.50323 61.0143 3.38805C60.7421 3.27286 60.4383 3.187 60.3391 3.19722C60.2399 3.20744 59.7877 3.20003 59.3342 3.18071C58.7135 3.15432 58.4831 3.06284 58.4024 2.81084C58.3153 2.53889 58.4085 2.47717 58.8987 2.48201C59.4752 2.4877 59.4831 2.47679 59.075 2.23851C58.6929 2.01542 58.8676 1.99725 60.7277 2.06663C61.8717 2.1093 62.8066 2.19006 62.8052 2.24608C62.8039 2.30211 63.0846 2.3292 63.4292 2.30628C64.9717 2.20368 67.3236 2.10543 68.1929 2.10728C68.7152 2.10853 69.0948 2.04924 69.0363 1.97584C68.9778 1.90245 69.1153 1.83477 69.3417 1.82544C70.2372 1.78856 70.4522 1.76202 70.8486 1.63941C71.0751 1.56935 71.4659 1.23481 71.7171 0.896003C72.1806 0.270626 72.9236 -0.0840392 73.0641 0.252958C73.1178 0.381815 73.2441 0.377741 73.4839 0.23942C73.7014 0.114005 73.8809 0.102566 73.9743 0.208162C74.1298 0.383943 77.7945 0.453753 78.0363 0.285581C78.1139 0.231595 78.2954 0.262983 78.4398 0.35533C78.7183 0.533537 80.0899 0.531323 80.5098 0.351982C80.6474 0.293238 81.1102 0.323065 81.5383 0.418263C81.9665 0.513467 84.2017 0.664452 86.5055 0.753785C88.8093 0.843122 92.0216 0.978033 93.644 1.05359C102.388 1.46082 105.059 1.55339 110.499 1.63782C114.773 1.70415 116.46 1.78325 116.456 1.91709C116.451 2.05213 116.533 2.05533 116.753 1.92862C117.06 1.75169 118.428 1.73026 122.367 1.84073C123.554 1.874 124.627 1.89687 124.752 1.89156C124.877 1.88624 126.106 1.83148 127.484 1.76986C128.861 1.70824 130.157 1.69968 130.363 1.75085C130.569 1.80202 130.794 1.78133 130.863 1.7049C130.931 1.62846 131.836 1.56529 132.875 1.56452C133.914 1.56389 135.351 1.49847 136.068 1.41944C136.786 1.34041 138.681 1.26667 140.279 1.25555C141.877 1.24439 143.901 1.22027 144.777 1.20189C145.652 1.18351 146.557 1.2442 146.788 1.33676C147.019 1.42932 147.153 1.43685 147.087 1.35349C147.018 1.26763 147.919 1.22589 149.165 1.25721C150.374 1.28763 151.725 1.22976 152.165 1.12863C152.771 0.989803 153.006 0.992642 153.128 1.14023C153.237 1.2739 153.291 1.27782 153.298 1.15261C153.304 1.03993 153.941 0.96701 154.956 0.962909C157.21 0.953811 164.071 1.06451 165.461 1.13242C166.085 1.1629 167.517 1.1584 168.644 1.12248C171.361 1.03576 175.578 1.06381 175.574 1.16859C175.57 1.29795 176.661 1.25935 178.485 1.06563C179.4 0.96846 180.424 0.947315 180.76 1.01866C181.546 1.18573 183.072 1.25556 183.076 1.1247C183.078 1.06923 183.36 1.02929 183.704 1.03595C190.057 1.15907 202.05 1.07065 202.455 0.897725C202.553 0.856028 202.63 0.888191 202.627 0.969215C202.624 1.05023 202.929 1.0894 203.303 1.05626C203.678 1.02311 204.163 1.05469 204.38 1.12655C204.882 1.29182 205.788 1.35917 205.68 1.22308C205.635 1.16661 207.356 1.16885 209.504 1.22809C211.652 1.28731 213.41 1.34858 213.409 1.36424C213.409 1.37991 214.047 1.41943 214.827 1.45208C215.607 1.48472 216.247 1.46321 216.249 1.40422C216.251 1.34526 216.609 1.36286 217.044 1.44333C217.48 1.5238 217.882 1.53788 217.938 1.47462C217.995 1.41135 218.967 1.38112 220.099 1.40743C221.326 1.43594 222.16 1.38814 222.166 1.28905C222.171 1.19104 222.241 1.19835 222.335 1.30687C222.534 1.53498 224.251 1.55529 224.487 1.33235C224.602 1.22356 224.659 1.22462 224.657 1.33554C224.657 1.42704 225.038 1.50029 225.507 1.49833C225.976 1.49646 226.594 1.56408 226.881 1.64877C227.192 1.74088 227.572 1.74012 227.825 1.6469C228.233 1.49665 229.187 1.45044 234.092 1.34317C235.343 1.31581 237.391 1.24517 238.643 1.18618C239.895 1.1272 242.709 1.10263 244.895 1.13158C247.082 1.16056 249.282 1.13564 249.784 1.0763C250.286 1.01693 253.048 0.998328 255.922 1.03496C262.671 1.12098 267.751 1.08111 269.774 0.926236C270.66 0.858404 272.564 0.712534 274.006 0.60208C275.447 0.49163 277.856 0.337957 279.359 0.260581C280.861 0.183202 282.552 0.0910002 283.116 0.0556839C284.963 -0.0600123 286.842 0.00605923 288.361 0.240103C289.319 0.387686 292.231 0.513044 296.485 0.589745C300.132 0.655516 303.187 0.741776 303.273 0.781447C303.359 0.821125 307.21 0.97294 311.83 1.11882C316.45 1.2647 321.046 1.43451 322.044 1.4962C327.647 1.84252 331.9 1.98509 341.227 2.1392C342.539 2.16087 343.969 2.20878 344.405 2.24565C345.348 2.3254 349.716 2.55141 353.82 2.7329C362.691 3.12513 366.001 3.25146 371.978 3.42602C375.6 3.53177 378.919 3.66547 379.354 3.72314C379.79 3.78081 380.963 3.87065 381.961 3.92279C383.809 4.01927 385.918 4.2412 386.19 4.36771C386.272 4.40618 387.036 4.48966 387.888 4.55324C388.739 4.61682 390.046 4.75143 390.793 4.85237C391.539 4.95331 392.456 5.07236 392.829 5.11693C393.203 5.16149 394.337 5.37113 395.351 5.58279C396.364 5.79445 397.406 5.97161 397.667 5.97646C397.927 5.98131 398.138 6.04765 398.135 6.12386C398.133 6.20007 398.258 6.26566 398.414 6.26961C399.948 6.30834 403.613 6.63259 404.188 6.78038C404.589 6.88336 405.125 7.19376 405.379 7.47018C405.882 8.01603 407.243 8.5753 408.498 8.75189C410.069 8.97283 412.788 9.20889 413.358 9.17381C413.678 9.15412 413.937 9.2187 413.934 9.31735C413.929 9.416 413.998 9.44742 414.085 9.38719C414.171 9.32695 414.45 9.42818 414.704 9.61214C414.958 9.79611 415.848 10.223 416.681 10.5609C417.894 11.053 418.515 11.1944 419.804 11.272C421.507 11.3746 421.808 11.5227 421.617 12.1644C421.496 12.5733 420.58 12.8932 419.585 12.8747C419.299 12.8693 418.999 12.9386 418.918 13.0286C418.838 13.1187 418.425 13.1858 418.002 13.1779C416.805 13.1556 414.925 13.4594 414.924 13.6751C414.924 14.0298 416.64 14.4953 418.331 14.5983C419.247 14.6541 421.375 14.7697 423.059 14.8552C426.462 15.0278 426.818 15.0797 426.986 15.4273C427.235 15.9398 424.055 17.608 421.464 18.3244C420.628 18.5556 420.204 18.792 419.912 19.1892C419.412 19.8707 419.629 20.2034 420.977 20.8184C421.5 21.057 421.924 21.3666 421.919 21.5065C421.914 21.6464 422.059 21.8759 422.242 22.0166C422.76 22.4155 422.618 22.8158 421.849 23.1295C421.461 23.2875 420.695 23.7119 420.147 24.0725C419.312 24.6214 418.968 24.7347 418.033 24.7686C417.211 24.7983 416.814 24.9039 416.525 25.1696C416.309 25.368 416.179 25.5894 416.237 25.6617C416.295 25.734 416.237 25.7911 416.109 25.7887C415.981 25.7862 415.751 25.9505 415.598 26.1536C415.444 26.3567 415.398 26.4717 415.494 26.4092C415.734 26.2537 416.345 26.7482 416.164 26.9514C416.079 27.0459 416.191 27.0823 416.43 27.0381C416.657 26.9961 416.43 27.103 415.922 27.2757C415.416 27.4484 414.677 27.5856 414.279 27.5806C413.881 27.5756 413.291 27.6396 412.967 27.7228C412.534 27.8341 412.379 27.8201 412.379 27.6702C412.379 27.5581 412.273 27.5926 412.142 27.7468C411.696 28.2767 412.106 28.8657 413.23 29.3095C413.812 29.5395 414.442 29.9082 414.629 30.129C414.815 30.3497 415.367 30.6261 415.856 30.7431C417.675 31.1794 417.929 32.0466 416.327 32.3509C415.331 32.54 414.841 33.0688 415.121 33.6517C415.266 33.955 415.258 34.0927 415.095 34.0896C414.676 34.0818 414.26 34.4887 414.27 34.898C414.28 35.3027 414.262 35.3093 412.337 35.5974C412.023 35.6444 411.453 35.8733 411.069 36.1059C410.686 36.3385 410.088 36.6307 409.74 36.7552C409.392 36.8798 409.103 37.0893 409.099 37.221C409.088 37.5298 408.263 37.8342 407.281 37.8919C406.207 37.955 405.763 38.1512 405.703 38.5899C405.652 38.9557 406.525 39.7537 406.984 39.7622C407.265 39.7675 408.521 40.7473 408.514 40.9554C408.504 41.24 407.679 41.4201 406.091 41.4842C405.225 41.5192 404.002 41.6179 403.374 41.7035C402.335 41.8452 398.623 42.2368 397.777 42.294C397.424 42.3179 397.249 42.9086 397.593 42.915C397.696 42.9169 397.673 43.0564 397.542 43.225C397.411 43.3935 397.373 43.585 397.458 43.6505C397.743 43.8699 397.567 45.9806 397.244 46.2147C397.076 46.3369 396.467 46.4513 395.891 46.469C394.962 46.4974 394.341 46.7472 394.544 47.0101C394.584 47.061 394.47 47.1964 394.292 47.3111C394.113 47.4258 393.969 47.4643 393.972 47.3967C393.974 47.329 393.853 47.3595 393.702 47.4643C393.502 47.6034 393.348 47.6041 393.134 47.4668C392.919 47.3294 392.654 47.331 392.151 47.4726C390.992 47.7991 391.351 48.3067 392.909 48.5421C394.651 48.8053 395.039 48.9251 394.765 49.1155C394.691 49.1672 393.074 49.2046 391.172 49.1986C387.127 49.1858 386.66 49.3128 386.288 50.5271C386.167 50.9198 385.817 51.5174 385.509 51.8551C385 52.4129 384.598 53.1409 384.561 53.571C384.553 53.6624 384.202 53.7548 383.781 53.7764C383.255 53.8033 382.976 53.9151 382.89 54.1323C382.821 54.3064 382.676 54.4062 382.567 54.3541C382.458 54.3019 382.366 54.3353 382.363 54.4283C382.36 54.5213 381.888 54.7871 381.314 55.019C379.688 55.6769 379.445 56.2337 380.631 56.5892C381.185 56.7555 381.208 56.881 380.808 57.5777C380.515 58.0885 381.252 58.4325 383.686 58.922C386.042 59.3958 386.698 59.7078 386.008 60.0261C385.58 60.2238 382.502 59.9723 377.662 59.3442C375.469 59.0596 374.543 59.1721 374.034 59.7849C373.526 60.3957 373.003 60.5695 371.492 60.6287C370.24 60.6778 369.062 61.1094 369.048 61.5243C369.039 61.7787 370.039 62.0376 371.198 62.0808C372.069 62.1134 373.092 62.5707 372.582 62.6997C372.422 62.7402 372.136 62.8813 371.946 63.0134C371.756 63.1455 371.603 63.2089 371.604 63.1543C371.612 62.9532 370.213 63.5582 369.929 63.8789C369.576 64.2785 368.381 64.816 367.91 64.7871C366.74 64.7151 365.183 64.7987 365.179 64.9337C365.17 65.1916 366.342 65.952 366.587 65.8473C366.711 65.7946 366.74 65.8314 366.653 65.9291C366.566 66.0268 366.598 66.1565 366.725 66.2173C366.852 66.278 366.892 66.3995 366.813 66.4873C366.735 66.575 366.794 66.7613 366.945 66.9013C367.373 67.2991 366.937 67.45 365.2 67.5053C364.325 67.5331 363.148 67.6212 362.582 67.7011C362.017 67.781 360.118 67.9812 358.362 68.1459C356.607 68.3106 354.596 68.5775 353.895 68.7389C353.178 68.904 352.003 69.021 351.212 69.0063C350.438 68.9918 349.06 69.1183 348.149 69.2873C346.586 69.5774 346.05 69.5813 338.547 69.3583C334.176 69.2284 329.733 69.073 328.672 69.0129C325.909 68.8563 322.512 68.613 322.046 68.5382C321.826 68.503 319.169 68.3768 316.142 68.2579C311.813 68.0879 309.981 68.085 307.562 68.2442C305.871 68.3556 302.762 68.4601 300.655 68.4763C298.548 68.4925 296.45 68.5321 295.993 68.5642C294.416 68.675 289.008 68.8377 285.835 68.8697C284.084 68.8874 280.912 68.94 278.785 68.9867C276.659 69.0334 272.362 69.0697 269.237 69.0674C266.112 69.0652 263.248 69.0822 262.872 69.1053C262.496 69.1284 259.928 69.1532 257.165 69.1603C254.402 69.1675 251.844 69.1942 251.481 69.2197C250.782 69.2686 249.061 69.323 242.971 69.4887C238.192 69.6187 234.602 69.7916 231.638 70.0347C230.35 70.1404 228.905 70.2196 228.428 70.2107C227.95 70.2018 227.261 70.2593 226.896 70.3384C226.531 70.4176 225.586 70.5092 224.796 70.5421C224.006 70.575 222.364 70.7317 221.147 70.8904C219.93 71.049 218.32 71.2074 217.569 71.2422C216.818 71.277 215.434 71.3638 214.494 71.4352C213.554 71.5066 212.17 71.5912 211.419 71.6232C210.668 71.6551 208.941 71.7759 207.582 71.8915C206.222 72.007 204.275 72.1304 203.254 72.1657C202.233 72.2009 200.81 72.2749 200.092 72.3302C199.373 72.3855 197.531 72.4223 195.998 72.4121C194.464 72.4019 192.441 72.4476 191.501 72.5136C189.646 72.644 185.698 72.7273 182.631 72.7007C181.569 72.6915 180.237 72.7384 179.673 72.805C179.108 72.8716 175.22 72.9021 171.034 72.8726C166.847 72.8432 163.201 72.8481 162.931 72.8835C162.662 72.919 160.461 72.9616 158.041 72.9784C155.622 72.9951 153.13 73.0228 152.505 73.04C151.879 73.0572 149.577 73.0835 147.389 73.0986C145.201 73.1137 142.54 73.1587 141.476 73.1986C140.412 73.2384 139.44 73.2491 139.316 73.2223C139.192 73.1955 137.606 73.2269 135.791 73.292C133.976 73.3571 131.468 73.4325 130.217 73.4596C128.966 73.4866 127.583 73.5327 127.145 73.562C126.706 73.5913 124.966 73.6376 123.278 73.6649C121.59 73.6922 120.157 73.7368 120.093 73.7641C120.029 73.7914 118.697 73.8381 117.134 73.868C115.57 73.8979 114.085 73.9486 113.834 73.9806C113.374 74.0393 97.2781 73.955 90.3153 73.8575C88.2537 73.8286 84.8315 73.7179 82.7101 73.612ZM36.6152 52.1667C36.7284 52.1633 36.6377 52.0044 36.4136 51.8135C36.0647 51.5164 35.7777 51.4691 34.4193 51.4851C33.5465 51.4953 32.7937 51.583 32.7462 51.6799C32.6219 51.9335 34.1873 52.2459 35.3854 52.2065C35.9485 52.188 36.502 52.1701 36.6152 52.1667ZM42.2904 43.1841C42.2917 43.1438 42.1907 43.1089 42.0658 43.1065C41.9409 43.1044 41.8359 43.1816 41.8326 43.2784C41.8291 43.3753 41.9302 43.4102 42.0571 43.356C42.184 43.3018 42.289 43.2244 42.2904 43.1841ZM30.8793 38.007C30.8806 37.9711 30.7245 37.8942 30.5325 37.8361C30.3324 37.7755 30.2402 37.8017 30.3165 37.8975C30.4444 38.058 30.8746 38.1417 30.8793 38.007ZM33.5903 32.7539C33.3717 32.5868 33.3449 32.6054 33.46 32.8447C33.5395 33.0103 33.6633 33.1049 33.735 33.055C33.8068 33.0051 33.7416 32.8696 33.5903 32.7539ZM35.4768 30.7924C35.2582 30.6252 35.2314 30.6438 35.3464 30.8831C35.426 31.0487 35.5498 31.1433 35.6215 31.0935C35.6932 31.0436 35.6281 30.9081 35.4768 30.7924ZM33.7783 29.8067C33.7043 29.7138 33.5987 29.637 33.5436 29.6359C33.4885 29.635 33.4408 29.7089 33.4376 29.8004C33.4346 29.8918 33.5401 29.9687 33.6724 29.9711C33.8047 29.9736 33.8523 29.8996 33.7783 29.8067ZM43.0685 22.0457C42.9062 21.9946 42.7101 21.9968 42.6327 22.0507C42.5553 22.1045 42.6881 22.1463 42.9278 22.1436C43.1926 22.1405 43.2478 22.1021 43.0685 22.0457ZM43.041 21.6094C42.7008 21.3929 42.1624 20.7348 42.169 20.5437C42.1711 20.4855 42.3252 20.5355 42.5116 20.6547C42.953 20.9372 43.2211 20.7479 42.8577 20.4102C42.5383 20.1134 41.9491 20.3328 41.9344 20.754C41.9298 20.8854 41.8464 20.9547 41.7489 20.9081C41.6515 20.8615 41.5519 20.9675 41.5276 21.1438C41.498 21.3584 41.6287 21.4669 41.9235 21.4724C42.1656 21.4769 42.3611 21.5554 42.3579 21.6469C42.3549 21.7384 42.5822 21.8151 42.8633 21.8174C43.302 21.8211 43.3272 21.7915 43.041 21.6094ZM41.6906 21.2283C41.6919 21.188 41.797 21.1106 41.9239 21.0564C42.0508 21.0022 42.1518 21.0371 42.1485 21.134C42.145 21.2308 42.0401 21.3082 41.9152 21.3059C41.7903 21.3037 41.6892 21.2686 41.6906 21.2283ZM45.8279 17.8429C45.8489 17.6374 45.8134 17.5623 45.749 17.6761C45.6846 17.7898 45.5411 17.8394 45.43 17.7863C45.319 17.7331 45.285 17.8069 45.3544 17.9502C45.5384 18.3298 45.7838 18.2741 45.8279 17.8429ZM44.6642 17.6853C44.9188 17.4003 44.6425 17.3338 44.3214 17.6028C44.1367 17.7575 44.1162 17.8526 44.2668 17.8554C44.3997 17.8579 44.5785 17.7813 44.6642 17.6853ZM52.2353 12.1147C52.2366 12.0788 52.0857 12.0035 51.9002 11.9473C51.7146 11.8912 51.5603 11.9177 51.5572 12.0063C51.5542 12.0949 51.7049 12.1702 51.8923 12.1737C52.0797 12.1772 52.234 12.1507 52.2353 12.1147ZM13.8983 55.7363C13.9013 55.6503 14.0076 55.5355 14.1345 55.4813C14.2614 55.4271 14.3611 55.4995 14.3562 55.642C14.3512 55.7846 14.2449 55.8994 14.12 55.8971C13.9951 55.8949 13.8953 55.8224 13.8983 55.7363ZM23.6339 42.2356C23.7692 42.1414 24.0129 42.0996 24.1754 42.1426C24.344 42.1873 24.2384 42.2608 23.9293 42.3138C23.549 42.3791 23.461 42.3558 23.6339 42.2356ZM26.8653 42.3239C26.6321 42.2073 26.6168 42.1508 26.815 42.1383C27.3144 42.1066 27.4361 42.0825 27.7146 41.9601C27.8645 41.8941 28.0581 41.9292 28.1447 42.0379C28.2431 42.1614 28.2054 42.1893 28.0442 42.1122C27.8913 42.039 27.7824 42.0942 27.7771 42.2479C27.7669 42.5404 27.3653 42.5738 26.8653 42.3239ZM25.7088 41.9278C25.8851 41.8051 26.0511 41.7991 26.1952 41.91C26.3392 42.021 26.2479 42.0846 25.9276 42.0963C25.5613 42.1096 25.5073 42.068 25.7088 41.9278ZM31.5096 39.4887C31.5145 39.3462 31.6192 39.2776 31.7421 39.3365C31.8651 39.3954 31.9632 39.5139 31.9602 39.6C31.9573 39.686 31.8526 39.7546 31.7277 39.7522C31.6027 39.75 31.5046 39.6313 31.5096 39.4887ZM31.8589 36.7142C32.2473 36.1999 32.2866 36.1855 32.2326 36.577C32.2063 36.7675 32.0494 36.9585 31.8838 37.0015C31.6436 37.0639 31.6385 37.006 31.8589 36.7142ZM33.4233 30.6388C33.2333 30.5478 33.343 30.4716 33.7628 30.4027C34.5238 30.2779 34.6693 30.3564 34.118 30.5944C33.8903 30.6927 33.5777 30.7127 33.4233 30.6388ZM38.404 19.4759C38.4814 19.422 38.6775 19.4198 38.8398 19.4709C39.0191 19.5273 38.9639 19.5657 38.699 19.5688C38.4594 19.5716 38.3266 19.5297 38.404 19.4759ZM39.1085 18.8234C39.1859 18.7696 39.382 18.7673 39.5443 18.8184C39.7236 18.8749 39.6684 18.9133 39.4036 18.9163C39.1639 18.9191 39.0311 18.8773 39.1085 18.8234ZM43.2274 16.7683C43.2236 16.5928 43.2808 16.4956 43.3543 16.5523C43.4279 16.6089 43.4309 16.7525 43.3611 16.8713C43.284 17.0026 43.2316 16.9622 43.2274 16.7683ZM51.4807 7.67337C51.2793 7.5727 51.2536 7.50681 51.4162 7.50832C51.565 7.50988 51.7474 7.58682 51.8214 7.67972C51.9885 7.88942 51.9099 7.88796 51.4807 7.67337Z" fill="#F7C353"/>
</svg>
